# xmcd CD database file
#
# Track frame offsets:
#	150
#	35925
#	61805
#	82164
#	103005
#	124511
#	148050
#	183450
#	210001
#	238102
#	257137
#	279075
#
# Disc length: 4010 seconds
#
# Revision: 0
# Processed by: cddbd v1.5PL3 Copyright (c) Steve Scherf et al.
# Submitted via: CDex 1.50Beta5
#
DISCID=aa0fa80c
DTITLE=AA.VV. - New Age n.128 In search
DYEAR=1900
DGENRE=New Age
TTITLE0=Cybertribe - Seaside traveling (offshore remix)
TTITLE1=Bluster - Happy planet
TTITLE2=Kim Robertson - The labirint waltz
TTITLE3=Spaceheads - The hut
TTITLE4=Jeff Lorber - When she smiles
TTITLE5=Painè - Estoril
TTITLE6=Robert Fox - Hot whore
TTITLE7=Stanley Jordan feat. Novecento - Flying on the sky
TTITLE8=Opera to relax - From life two life
TTITLE9=Sheila Chandra - Village girl
TTITLE10=Panta Rhei - Byzantium
TTITLE11=Janì - Asteria
EXTD=
EXTT0=
EXTT1=
EXTT2=
EXTT3=
EXTT4=
EXTT5=
EXTT6=
EXTT7=
EXTT8=
EXTT9=
EXTT10=
EXTT11=
PLAYORDER=
